<svg width="212" height="241" viewBox="0 0 212 241" fill="none" xmlns="http://www.w3.org/2000/svg">
<path d="M13.3612 83.5907V83.4239C13.361 66.9444 17.4258 50.8339 25.0428 37.1252C32.6597 23.4164 43.4876 12.7235 56.1602 6.3955C68.8329 0.0675044 82.7826 -1.61206 96.2493 1.56871C109.716 4.74947 122.097 12.6481 131.829 24.268C139.486 19.73 148.039 17.822 156.543 18.7548C165.047 19.6876 173.17 23.4249 180.016 29.5537C186.862 35.6825 192.163 43.9644 195.335 53.4842C198.506 63.0039 199.424 73.3911 197.987 83.498C200.1 83.7335 202.15 84.4892 204.008 85.7181C205.867 86.947 207.494 88.6227 208.79 90.6406C210.085 92.6584 211.02 94.9752 211.536 97.4462C212.052 99.9173 212.139 102.49 211.79 105.003C204.812 155.408 187.55 187.313 160.037 200.735V213.192C160.037 220.567 157.597 227.64 153.254 232.855C148.91 238.07 143.02 241 136.878 241H75.1194C68.9772 241 63.0865 238.07 58.7433 232.855C54.4001 227.64 51.9601 220.567 51.9601 213.192V200.735C24.4468 187.313 7.18542 155.408 0.206746 105.003C-0.130056 102.556 -0.054746 100.054 0.428219 97.6431C0.911185 95.2324 1.79199 92.9626 3.01851 90.9679C4.24503 88.9732 5.79234 87.2941 7.56887 86.0302C9.3454 84.7662 11.315 83.943 13.3612 83.6093V83.5907ZM28.8008 83.4239H44.2403C44.2403 71.1322 48.307 59.3439 55.5457 50.6524C62.7844 41.9608 72.6021 37.078 82.8392 37.078C93.0762 37.078 102.894 41.9608 110.133 50.6524C117.371 59.3439 121.438 71.1322 121.438 83.4239H136.878C136.878 66.2155 131.184 49.7119 121.05 37.5438C110.916 25.3756 97.171 18.5396 82.8392 18.5396C68.5073 18.5396 54.7624 25.3756 44.6283 37.5438C34.4941 49.7119 28.8008 66.2155 28.8008 83.4239ZM59.6799 83.4239H105.998C105.998 76.0489 103.558 68.9759 99.2153 63.761C94.8721 58.546 88.9814 55.6163 82.8392 55.6163C76.6969 55.6163 70.8063 58.546 66.4631 63.761C62.1199 68.9759 59.6799 76.0489 59.6799 83.4239ZM165.688 83.4239H182.224C183.389 77.9453 183.498 72.2195 182.541 66.6828C181.585 61.1461 179.588 55.9447 176.704 51.4748C173.819 47.005 170.123 43.3846 165.897 40.8897C161.671 38.3948 157.026 37.0911 152.317 37.078C148.612 37.078 145.091 37.8566 141.818 39.284C144.551 44.5489 146.805 50.2217 148.534 56.1725C151.475 55.2967 154.565 55.4771 157.421 56.6911C160.277 57.9051 162.774 60.0994 164.601 63.0016C166.427 65.9039 167.504 69.3863 167.698 73.0168C167.891 76.6473 167.192 80.266 165.688 83.4239ZM144.597 203.923H67.3996V213.192C67.3996 215.651 68.213 218.008 69.6607 219.747C71.1084 221.485 73.072 222.462 75.1194 222.462H136.878C138.925 222.462 140.889 221.485 142.336 219.747C143.784 218.008 144.597 215.651 144.597 213.192V203.923ZM61.9649 185.385H150.032C174.519 175.93 190.02 149.198 196.567 101.962H15.4301C21.9765 149.198 37.4778 175.93 61.9649 185.385Z" fill="black"/>
</svg>
