<svg width="149" height="150" viewBox="0 0 149 150" fill="none" xmlns="http://www.w3.org/2000/svg">
<g clip-path="url(#clip0_453_2)">
<path d="M3.17696 74.1018C3.17347 86.7048 6.4665 99.0106 12.7281 109.857L2.57812 146.916L40.5037 136.972C50.9935 142.683 62.7464 145.675 74.6897 145.676H74.7211C114.148 145.676 146.243 113.593 146.26 74.1582C146.268 55.0495 138.833 37.0809 125.325 23.5623C111.819 10.0449 93.8566 2.59661 74.7182 2.58789C35.2863 2.58789 3.19382 34.6693 3.17754 74.1018" fill="url(#paint0_linear_453_2)"/>
<path d="M0.622093 74.0791C0.618023 87.1355 4.02907 99.8814 10.514 111.116L0 149.504L39.2855 139.203C50.1099 145.105 62.2971 148.217 74.6983 148.222H74.7302C115.572 148.222 148.82 114.984 148.837 74.1384C148.844 54.343 141.142 35.7285 127.151 21.7256C113.159 7.72442 94.5541 0.00813954 74.7302 0C33.8814 0 0.638372 33.2326 0.622093 74.0791ZM24.018 109.181L22.5512 106.853C16.3849 97.0483 13.1302 85.718 13.1349 74.0837C13.1477 40.1331 40.7779 12.5116 74.7535 12.5116C91.207 12.5186 106.67 18.9326 118.3 30.5698C129.93 42.2081 136.329 57.6791 136.325 74.1337C136.31 108.084 108.679 135.709 74.7302 135.709H74.7058C63.6517 135.703 52.8105 132.735 43.3558 127.125L41.1058 125.791L17.793 131.903L24.018 109.181Z" fill="url(#paint1_linear_453_2)"/>
<path d="M56.2079 43.1097C54.8207 40.0266 53.3608 39.9643 52.0417 39.9103C50.9614 39.8638 49.7265 39.8672 48.4928 39.8672C47.2579 39.8672 45.2515 40.3318 43.5556 42.1835C41.8579 44.037 37.0742 48.5161 37.0742 57.626C37.0742 66.7358 43.7097 75.5405 44.6347 76.7771C45.5608 78.0114 57.4446 97.3045 76.2655 104.727C91.9073 110.895 95.0905 109.668 98.4853 109.359C101.881 109.05 109.441 104.881 110.984 100.557C112.527 96.2335 112.527 92.5277 112.064 91.7533C111.602 90.9818 110.367 90.5184 108.515 89.5928C106.663 88.6672 97.5591 84.187 95.862 83.569C94.1643 82.9516 92.93 82.6434 91.6951 84.4975C90.4603 86.3486 86.9143 90.5184 85.8335 91.7533C84.7539 92.9911 83.673 93.1451 81.8219 92.219C79.969 91.2899 74.0056 89.337 66.9306 83.0295C61.426 78.1213 57.7097 72.0603 56.6294 70.2062C55.5492 68.355 56.5138 67.3516 57.4422 66.4289C58.2742 65.5992 59.2946 64.2667 60.2213 63.1859C61.1446 62.1045 61.4527 61.3329 62.0701 60.0981C62.6882 58.862 62.3789 57.7806 61.9167 56.8545C61.4527 55.9283 57.8544 46.7707 56.2079 43.1097Z" fill="white"/>
</g>
<defs>
<linearGradient id="paint0_linear_453_2" x1="7186.68" y1="14435.4" x2="7186.68" y2="2.58789" gradientUnits="userSpaceOnUse">
<stop stop-color="#1FAF38"/>
<stop offset="1" stop-color="#60D669"/>
</linearGradient>
<linearGradient id="paint1_linear_453_2" x1="7441.86" y1="14950.4" x2="7441.86" y2="0" gradientUnits="userSpaceOnUse">
<stop stop-color="#F9F9F9"/>
<stop offset="1" stop-color="white"/>
</linearGradient>
<clipPath id="clip0_453_2">
<rect width="148.837" height="150" fill="white"/>
</clipPath>
</defs>
</svg>
